<svg xmlns="http://www.w3.org/2000/svg" xmlns:xlink="http://www.w3.org/1999/xlink" width="500" zoomAndPan="magnify" viewBox="0 0 375 374.999991" height="500" preserveAspectRatio="xMidYMid meet" version="1.0"><defs><g/><clipPath id="id1"><path d="M 57.136719 0 L 108 0 L 108 51 L 57.136719 51 Z M 57.136719 0 " clip-rule="nonzero"/></clipPath><clipPath id="id2"><path d="M 57.136719 73 L 318 73 L 318 292.5 L 57.136719 292.5 Z M 57.136719 73 " clip-rule="nonzero"/></clipPath></defs><g fill="#131045" fill-opacity="1"><g transform="translate(-1.127576, 371.938065)"><g><path d="M 26.015625 -21.921875 C 27.566406 -21.679688 28.984375 -21.050781 30.265625 -20.03125 C 31.546875 -19.007812 32.5625 -17.742188 33.3125 -16.234375 C 34.070312 -14.734375 34.453125 -13.128906 34.453125 -11.421875 C 34.453125 -9.265625 33.898438 -7.320312 32.796875 -5.59375 C 31.703125 -3.863281 30.101562 -2.5 28 -1.5 C 25.90625 -0.5 23.429688 0 20.578125 0 L 4.703125 0 L 4.703125 -42.578125 L 19.96875 -42.578125 C 22.863281 -42.578125 25.328125 -42.097656 27.359375 -41.140625 C 29.398438 -40.179688 30.925781 -38.882812 31.9375 -37.25 C 32.957031 -35.625 33.46875 -33.796875 33.46875 -31.765625 C 33.46875 -29.234375 32.785156 -27.144531 31.421875 -25.5 C 30.054688 -23.851562 28.253906 -22.660156 26.015625 -21.921875 Z M 10.265625 -24.1875 L 19.609375 -24.1875 C 22.210938 -24.1875 24.226562 -24.796875 25.65625 -26.015625 C 27.082031 -27.242188 27.796875 -28.9375 27.796875 -31.09375 C 27.796875 -33.25 27.082031 -34.9375 25.65625 -36.15625 C 24.226562 -37.375 22.171875 -37.984375 19.484375 -37.984375 L 10.265625 -37.984375 Z M 20.09375 -4.578125 C 22.863281 -4.578125 25.019531 -5.226562 26.5625 -6.53125 C 28.113281 -7.832031 28.890625 -9.644531 28.890625 -11.96875 C 28.890625 -14.332031 28.070312 -16.195312 26.4375 -17.5625 C 24.8125 -18.925781 22.632812 -19.609375 19.90625 -19.609375 L 10.265625 -19.609375 L 10.265625 -4.578125 Z M 20.09375 -4.578125 "/></g></g></g><g fill="#131045" fill-opacity="1"><g transform="translate(39.966496, 371.938065)"><g><path d="M 24 0.421875 C 20.050781 0.421875 16.445312 -0.5 13.1875 -2.34375 C 9.9375 -4.195312 7.363281 -6.785156 5.46875 -10.109375 C 3.570312 -13.429688 2.625 -17.164062 2.625 -21.3125 C 2.625 -25.46875 3.570312 -29.203125 5.46875 -32.515625 C 7.363281 -35.835938 9.9375 -38.425781 13.1875 -40.28125 C 16.445312 -42.132812 20.050781 -43.0625 24 -43.0625 C 27.988281 -43.0625 31.613281 -42.132812 34.875 -40.28125 C 38.132812 -38.425781 40.695312 -35.847656 42.5625 -32.546875 C 44.4375 -29.253906 45.375 -25.507812 45.375 -21.3125 C 45.375 -17.125 44.4375 -13.378906 42.5625 -10.078125 C 40.695312 -6.773438 38.132812 -4.195312 34.875 -2.34375 C 31.613281 -0.5 27.988281 0.421875 24 0.421875 Z M 24 -4.390625 C 26.976562 -4.390625 29.65625 -5.082031 32.03125 -6.46875 C 34.414062 -7.851562 36.289062 -9.828125 37.65625 -12.390625 C 39.019531 -14.960938 39.703125 -17.9375 39.703125 -21.3125 C 39.703125 -24.738281 39.019531 -27.722656 37.65625 -30.265625 C 36.289062 -32.804688 34.425781 -34.769531 32.0625 -36.15625 C 29.707031 -37.539062 27.019531 -38.234375 24 -38.234375 C 20.988281 -38.234375 18.300781 -37.539062 15.9375 -36.15625 C 13.582031 -34.769531 11.722656 -32.804688 10.359375 -30.265625 C 8.992188 -27.722656 8.3125 -24.738281 8.3125 -21.3125 C 8.3125 -17.9375 8.992188 -14.960938 10.359375 -12.390625 C 11.722656 -9.828125 13.59375 -7.851562 15.96875 -6.46875 C 18.351562 -5.082031 21.03125 -4.390625 24 -4.390625 Z M 24 -4.390625 "/></g></g></g><g fill="#131045" fill-opacity="1"><g transform="translate(91.623856, 371.938065)"><g><path d="M 24 0.421875 C 20.050781 0.421875 16.445312 -0.5 13.1875 -2.34375 C 9.9375 -4.195312 7.363281 -6.785156 5.46875 -10.109375 C 3.570312 -13.429688 2.625 -17.164062 2.625 -21.3125 C 2.625 -25.46875 3.570312 -29.203125 5.46875 -32.515625 C 7.363281 -35.835938 9.9375 -38.425781 13.1875 -40.28125 C 16.445312 -42.132812 20.050781 -43.0625 24 -43.0625 C 27.988281 -43.0625 31.613281 -42.132812 34.875 -40.28125 C 38.132812 -38.425781 40.695312 -35.847656 42.5625 -32.546875 C 44.4375 -29.253906 45.375 -25.507812 45.375 -21.3125 C 45.375 -17.125 44.4375 -13.378906 42.5625 -10.078125 C 40.695312 -6.773438 38.132812 -4.195312 34.875 -2.34375 C 31.613281 -0.5 27.988281 0.421875 24 0.421875 Z M 24 -4.390625 C 26.976562 -4.390625 29.65625 -5.082031 32.03125 -6.46875 C 34.414062 -7.851562 36.289062 -9.828125 37.65625 -12.390625 C 39.019531 -14.960938 39.703125 -17.9375 39.703125 -21.3125 C 39.703125 -24.738281 39.019531 -27.722656 37.65625 -30.265625 C 36.289062 -32.804688 34.425781 -34.769531 32.0625 -36.15625 C 29.707031 -37.539062 27.019531 -38.234375 24 -38.234375 C 20.988281 -38.234375 18.300781 -37.539062 15.9375 -36.15625 C 13.582031 -34.769531 11.722656 -32.804688 10.359375 -30.265625 C 8.992188 -27.722656 8.3125 -24.738281 8.3125 -21.3125 C 8.3125 -17.9375 8.992188 -14.960938 10.359375 -12.390625 C 11.722656 -9.828125 13.59375 -7.851562 15.96875 -6.46875 C 18.351562 -5.082031 21.03125 -4.390625 24 -4.390625 Z M 24 -4.390625 "/></g></g></g><g fill="#131045" fill-opacity="1"><g transform="translate(143.28121, 371.938065)"><g><path d="M 27.796875 0 L 10.265625 -19.421875 L 10.265625 0 L 4.703125 0 L 4.703125 -42.578125 L 10.265625 -42.578125 L 10.265625 -22.84375 L 27.859375 -42.578125 L 34.875 -42.578125 L 15.578125 -21.25 L 35.0625 0 Z M 27.796875 0 "/></g></g></g><g fill="#131045" fill-opacity="1"><g transform="translate(183.520458, 371.938065)"><g><path d="M 39.890625 -42.578125 L 23.828125 0 L 17.40625 0 L 1.34375 -42.578125 L 7.265625 -42.578125 L 20.640625 -5.859375 L 34.015625 -42.578125 Z M 39.890625 -42.578125 "/></g></g></g><g fill="#131045" fill-opacity="1"><g transform="translate(228.461276, 371.938065)"><g><path d="M 10.265625 -38.046875 L 10.265625 -23.828125 L 25.78125 -23.828125 L 25.78125 -19.234375 L 10.265625 -19.234375 L 10.265625 -4.578125 L 27.609375 -4.578125 L 27.609375 0 L 4.703125 0 L 4.703125 -42.625 L 27.609375 -42.625 L 27.609375 -38.046875 Z M 10.265625 -38.046875 "/></g></g></g><g fill="#131045" fill-opacity="1"><g transform="translate(263.449401, 371.938065)"><g><path d="M 27.125 0 L 16.984375 -17.40625 L 10.265625 -17.40625 L 10.265625 0 L 4.703125 0 L 4.703125 -42.578125 L 18.453125 -42.578125 C 21.660156 -42.578125 24.375 -42.023438 26.59375 -40.921875 C 28.8125 -39.816406 30.46875 -38.328125 31.5625 -36.453125 C 32.664062 -34.585938 33.21875 -32.453125 33.21875 -30.046875 C 33.21875 -27.117188 32.375 -24.535156 30.6875 -22.296875 C 29 -20.054688 26.46875 -18.566406 23.09375 -17.828125 L 33.78125 0 Z M 10.265625 -21.859375 L 18.453125 -21.859375 C 21.460938 -21.859375 23.71875 -22.601562 25.21875 -24.09375 C 26.726562 -25.582031 27.484375 -27.566406 27.484375 -30.046875 C 27.484375 -32.578125 26.738281 -34.53125 25.25 -35.90625 C 23.769531 -37.289062 21.503906 -37.984375 18.453125 -37.984375 L 10.265625 -37.984375 Z M 10.265625 -21.859375 "/></g></g></g><g fill="#131045" fill-opacity="1"><g transform="translate(304.238176, 371.938065)"><g><path d="M 18.203125 0.421875 C 15.390625 0.421875 12.875 -0.0703125 10.65625 -1.0625 C 8.4375 -2.0625 6.695312 -3.445312 5.4375 -5.21875 C 4.175781 -6.988281 3.523438 -9.035156 3.484375 -11.359375 L 9.40625 -11.359375 C 9.613281 -9.367188 10.4375 -7.691406 11.875 -6.328125 C 13.320312 -4.960938 15.429688 -4.28125 18.203125 -4.28125 C 20.847656 -4.28125 22.929688 -4.941406 24.453125 -6.265625 C 25.984375 -7.585938 26.75 -9.285156 26.75 -11.359375 C 26.75 -12.984375 26.300781 -14.304688 25.40625 -15.328125 C 24.507812 -16.347656 23.390625 -17.125 22.046875 -17.65625 C 20.703125 -18.1875 18.890625 -18.753906 16.609375 -19.359375 C 13.804688 -20.097656 11.554688 -20.832031 9.859375 -21.5625 C 8.171875 -22.289062 6.722656 -23.4375 5.515625 -25 C 4.316406 -26.570312 3.71875 -28.679688 3.71875 -31.328125 C 3.71875 -33.648438 4.304688 -35.707031 5.484375 -37.5 C 6.671875 -39.289062 8.332031 -40.675781 10.46875 -41.65625 C 12.613281 -42.632812 15.066406 -43.125 17.828125 -43.125 C 21.828125 -43.125 25.097656 -42.125 27.640625 -40.125 C 30.179688 -38.132812 31.613281 -35.488281 31.9375 -32.1875 L 25.84375 -32.1875 C 25.632812 -33.8125 24.773438 -35.242188 23.265625 -36.484375 C 21.765625 -37.734375 19.769531 -38.359375 17.28125 -38.359375 C 14.957031 -38.359375 13.0625 -37.753906 11.59375 -36.546875 C 10.132812 -35.347656 9.40625 -33.671875 9.40625 -31.515625 C 9.40625 -29.972656 9.84375 -28.710938 10.71875 -27.734375 C 11.59375 -26.753906 12.671875 -26.007812 13.953125 -25.5 C 15.234375 -24.988281 17.035156 -24.410156 19.359375 -23.765625 C 22.171875 -22.984375 24.429688 -22.21875 26.140625 -21.46875 C 27.847656 -20.71875 29.3125 -19.554688 30.53125 -17.984375 C 31.757812 -16.421875 32.375 -14.296875 32.375 -11.609375 C 32.375 -9.523438 31.820312 -7.566406 30.71875 -5.734375 C 29.625 -3.910156 27.992188 -2.425781 25.828125 -1.28125 C 23.671875 -0.144531 21.128906 0.421875 18.203125 0.421875 Z M 18.203125 0.421875 "/></g></g></g><g fill="#131045" fill-opacity="1"><g transform="translate(343.744704, 371.938065)"><g><path d="M 10.265625 -38.046875 L 10.265625 -23.828125 L 25.78125 -23.828125 L 25.78125 -19.234375 L 10.265625 -19.234375 L 10.265625 -4.578125 L 27.609375 -4.578125 L 27.609375 0 L 4.703125 0 L 4.703125 -42.625 L 27.609375 -42.625 L 27.609375 -38.046875 Z M 10.265625 -38.046875 "/></g></g></g><path fill="#3b2f4a" d="M 277.492188 32.785156 L 275.433594 45.328125 C 275.207031 47.152344 275.890625 48.75 277.261719 49.890625 C 278.632812 50.800781 280.6875 51.03125 282.058594 50.117188 L 292.5625 44.414062 L 303.066406 50.117188 C 303.75 50.574219 304.433594 50.800781 305.347656 50.800781 C 306.261719 50.800781 307.175781 50.574219 308.089844 49.890625 C 309.460938 48.976562 310.144531 47.152344 309.914062 45.328125 L 307.859375 32.785156 L 316.539062 23.890625 C 317.679688 22.75 318.136719 20.925781 317.679688 19.328125 C 317.222656 17.730469 315.394531 16.363281 313.796875 16.132812 L 301.921875 14.308594 L 296.671875 2.90625 C 295.988281 1.308594 294.386719 0.167969 292.5625 0.167969 C 290.734375 0.167969 289.136719 1.082031 288.453125 2.90625 L 283.199219 14.308594 L 271.324219 16.132812 C 269.726562 16.363281 268.128906 17.503906 267.671875 19.097656 C 267.214844 20.695312 267.441406 22.519531 268.8125 23.660156 Z M 277.492188 32.785156 " fill-opacity="1" fill-rule="nonzero"/><g clip-path="url(#id1)"><path fill="#3b2f4a" d="M 67.410156 32.785156 L 65.355469 45.328125 C 65.128906 47.152344 65.8125 48.75 67.183594 49.890625 C 68.554688 50.800781 70.609375 51.03125 71.980469 50.117188 L 82.484375 44.414062 L 92.988281 50.117188 C 93.671875 50.574219 94.355469 50.800781 95.269531 50.800781 C 96.183594 50.800781 97.097656 50.574219 98.011719 49.890625 C 99.378906 48.976562 100.066406 47.152344 99.835938 45.328125 L 97.78125 32.785156 L 106.460938 23.890625 C 107.601562 22.75 108.058594 20.925781 107.601562 19.328125 C 107.144531 17.730469 105.316406 16.363281 103.71875 16.132812 L 91.84375 14.308594 L 86.59375 2.90625 C 85.90625 1.308594 84.308594 0.398438 82.484375 0.398438 C 80.65625 0.398438 79.058594 1.308594 78.371094 3.132812 L 73.121094 14.539062 L 61.246094 16.132812 C 59.648438 16.363281 58.050781 17.503906 57.59375 19.097656 C 57.136719 20.695312 57.363281 22.519531 58.734375 23.660156 Z M 67.410156 32.785156 " fill-opacity="1" fill-rule="nonzero"/></g><path fill="#3b2f4a" d="M 171.308594 74.292969 L 169.027344 88.433594 C 168.796875 90.257812 169.484375 91.855469 170.851562 92.996094 C 172.222656 93.90625 174.050781 94.136719 175.648438 93.222656 L 187.523438 86.609375 L 199.394531 93.222656 C 200.082031 93.679688 200.765625 93.90625 201.679688 93.90625 C 202.59375 93.90625 203.507812 93.679688 204.417969 92.996094 C 205.789062 92.082031 206.476562 90.257812 206.246094 88.433594 L 203.964844 74.292969 L 213.78125 64.257812 C 214.921875 63.117188 215.378906 61.292969 214.921875 59.695312 C 214.46875 58.101562 212.867188 56.960938 211.269531 56.730469 L 197.796875 54.679688 L 191.859375 41.90625 C 191.175781 40.308594 189.578125 39.167969 187.75 39.167969 C 185.921875 39.167969 184.324219 40.082031 183.640625 41.90625 L 177.703125 54.679688 L 164.230469 56.730469 C 162.632812 56.960938 161.035156 58.101562 160.578125 59.695312 C 160.121094 61.292969 160.347656 63.117188 161.71875 64.257812 Z M 181.128906 63.34375 C 182.726562 63.117188 183.867188 62.207031 184.554688 60.835938 L 187.523438 54.679688 L 190.492188 60.835938 C 191.175781 62.207031 192.316406 63.117188 193.914062 63.34375 L 200.996094 64.484375 L 195.742188 69.730469 C 194.828125 70.871094 194.371094 72.242188 194.601562 73.609375 L 195.742188 80.90625 L 189.804688 77.484375 C 189.121094 77.03125 188.433594 76.800781 187.523438 76.800781 C 186.609375 76.800781 185.921875 77.03125 185.238281 77.484375 L 179.300781 80.679688 L 180.441406 73.378906 C 180.671875 72.011719 180.214844 70.414062 179.300781 69.503906 L 174.277344 64.257812 Z M 181.128906 63.34375 " fill-opacity="1" fill-rule="nonzero"/><path fill="#3b2f4a" d="M 211.042969 193.574219 L 197.570312 191.523438 L 191.632812 178.75 C 190.949219 177.152344 189.347656 176.011719 187.523438 176.011719 C 185.695312 176.011719 184.097656 176.925781 183.410156 178.75 L 177.476562 191.523438 L 164.003906 193.574219 C 162.402344 193.804688 160.804688 194.945312 160.347656 196.539062 C 159.890625 198.136719 160.121094 199.960938 161.492188 201.101562 L 171.308594 211.136719 L 169.027344 225.277344 C 168.796875 227.101562 169.484375 228.699219 170.851562 229.839844 C 172.222656 230.75 174.050781 230.980469 175.648438 230.066406 L 187.523438 223.453125 L 199.394531 230.066406 C 200.082031 230.523438 200.765625 230.75 201.679688 230.75 C 202.59375 230.75 203.507812 230.523438 204.417969 229.839844 C 205.789062 228.925781 206.476562 227.101562 206.246094 225.277344 L 203.964844 211.136719 L 213.78125 201.101562 C 214.921875 199.960938 215.378906 198.136719 214.921875 196.539062 C 214.46875 194.945312 212.640625 193.804688 211.042969 193.574219 Z M 195.742188 206.574219 C 194.828125 207.714844 194.371094 209.085938 194.601562 210.453125 L 195.742188 217.75 L 189.804688 214.328125 C 189.121094 213.875 188.433594 213.644531 187.523438 213.644531 C 186.609375 213.644531 185.921875 213.875 185.238281 214.328125 L 179.300781 217.523438 L 180.441406 210.222656 C 180.671875 208.855469 180.214844 207.257812 179.300781 206.347656 L 174.277344 201.101562 L 181.355469 199.960938 C 182.957031 199.734375 184.097656 198.820312 184.78125 197.453125 L 187.75 191.292969 L 190.71875 197.453125 C 191.402344 198.820312 192.546875 199.734375 194.144531 199.960938 L 201.222656 201.101562 Z M 195.742188 206.574219 " fill-opacity="1" fill-rule="nonzero"/><g clip-path="url(#id2)"><path fill="#3b2f4a" d="M 305.804688 73.378906 C 304.207031 73.378906 302.609375 73.609375 301.011719 74.519531 L 192.089844 122.871094 L 190.492188 123.558594 C 189.347656 124.011719 187.980469 124.242188 186.835938 124.242188 C 185.695312 124.242188 184.554688 124.011719 183.410156 123.558594 L 182.957031 123.558594 L 73.804688 77.941406 C 72.207031 77.257812 70.835938 77.03125 69.238281 77.03125 C 63.074219 77.03125 57.363281 82.046875 57.363281 88.890625 L 57.363281 233.261719 C 57.363281 238.050781 60.332031 242.382812 64.671875 244.207031 L 182.957031 291.417969 L 183.640625 291.644531 C 184.78125 292.101562 185.921875 292.332031 187.066406 292.332031 C 188.207031 292.332031 189.347656 292.101562 190.261719 291.644531 L 310.144531 246.03125 C 314.710938 244.207031 317.679688 239.875 317.679688 235.085938 L 317.679688 85.242188 C 317.679688 78.398438 311.972656 73.378906 305.804688 73.378906 Z M 220.175781 207.488281 L 213.554688 214.328125 L 215.152344 223.910156 C 216.066406 229.15625 213.78125 234.171875 209.441406 237.363281 C 207.160156 238.960938 204.417969 239.875 201.453125 239.875 C 199.167969 239.875 196.882812 239.417969 194.828125 238.277344 L 191.859375 236.679688 L 191.859375 281.382812 L 186.609375 283.4375 L 182.726562 281.839844 L 182.726562 236.679688 L 179.757812 238.277344 C 175.191406 240.785156 169.484375 240.558594 165.144531 237.59375 C 160.804688 234.628906 158.75 229.382812 159.433594 224.136719 L 161.035156 214.558594 L 154.410156 207.714844 C 150.757812 204.066406 149.617188 198.59375 151.214844 193.804688 C 152.8125 189.011719 157.152344 185.363281 162.175781 184.679688 L 170.625 183.3125 L 174.507812 174.875 C 176.105469 171.453125 178.84375 168.941406 182.269531 167.804688 L 182.269531 133.136719 C 183.410156 133.363281 184.78125 133.59375 185.921875 133.59375 C 187.75 133.59375 189.578125 133.363281 191.402344 132.679688 L 191.402344 167.804688 C 194.828125 168.941406 197.570312 171.453125 199.167969 174.875 L 203.050781 183.3125 L 211.5 184.679688 C 216.523438 185.363281 220.859375 189.011719 222.460938 193.804688 C 224.972656 198.59375 223.828125 203.839844 220.175781 207.488281 Z M 220.175781 207.488281 " fill-opacity="1" fill-rule="nonzero"/></g></svg>