<svg xmlns="http://www.w3.org/2000/svg" xmlns:xlink="http://www.w3.org/1999/xlink" width="500" zoomAndPan="magnify" viewBox="0 0 375 374.999991" height="500" preserveAspectRatio="xMidYMid meet" version="1.0"><defs><g/><clipPath id="id1"><path d="M 217 77.566406 L 237 77.566406 L 237 97 L 217 97 Z M 217 77.566406 " clip-rule="nonzero"/></clipPath><clipPath id="id2"><path d="M 138.757812 77.566406 L 158 77.566406 L 158 97 L 138.757812 97 Z M 138.757812 77.566406 " clip-rule="nonzero"/></clipPath><clipPath id="id3"><path d="M 138.757812 105 L 237 105 L 237 187.816406 L 138.757812 187.816406 Z M 138.757812 105 " clip-rule="nonzero"/></clipPath></defs><g fill="#131045" fill-opacity="1"><g transform="translate(76.423593, 258.371117)"><g><path d="M 15.1875 -12.578125 C 16.632812 -12.203125 17.75 -11.53125 18.53125 -10.5625 C 19.3125 -9.59375 19.703125 -8.40625 19.703125 -7 C 19.703125 -4.800781 18.875 -3.082031 17.21875 -1.84375 C 15.570312 -0.613281 13.265625 0 10.296875 0 L 3.140625 0 C 2.410156 0 2.046875 -0.296875 2.046875 -0.890625 L 2.046875 -1.71875 C 2.046875 -2.3125 2.410156 -2.609375 3.140625 -2.609375 L 4 -2.609375 L 4 -20.5 L 3.140625 -20.5 C 2.410156 -20.5 2.046875 -20.796875 2.046875 -21.390625 L 2.046875 -22.203125 C 2.046875 -22.796875 2.410156 -23.09375 3.140625 -23.09375 L 10.65625 -23.09375 C 15.976562 -23.09375 18.640625 -21.28125 18.640625 -17.65625 C 18.640625 -16.53125 18.34375 -15.535156 17.75 -14.671875 C 17.15625 -13.816406 16.300781 -13.117188 15.1875 -12.578125 Z M 6.96875 -20.5 L 6.96875 -13.328125 L 10.265625 -13.328125 C 12.003906 -13.328125 13.328125 -13.648438 14.234375 -14.296875 C 15.148438 -14.953125 15.609375 -15.894531 15.609375 -17.125 C 15.609375 -18.332031 15.203125 -19.195312 14.390625 -19.71875 C 13.578125 -20.238281 12.222656 -20.5 10.328125 -20.5 Z M 9.859375 -2.609375 C 12.242188 -2.609375 13.972656 -2.957031 15.046875 -3.65625 C 16.128906 -4.363281 16.671875 -5.5 16.671875 -7.0625 C 16.671875 -9.5 14.832031 -10.71875 11.15625 -10.71875 L 6.96875 -10.71875 L 6.96875 -2.609375 Z M 9.859375 -2.609375 "/></g></g></g><g fill="#131045" fill-opacity="1"><g transform="translate(100.216545, 258.371117)"><g><path d="M 12.34375 0.328125 C 10.269531 0.328125 8.476562 -0.132812 6.96875 -1.0625 C 5.46875 -2 4.3125 -3.34375 3.5 -5.09375 C 2.6875 -6.84375 2.28125 -8.894531 2.28125 -11.25 C 2.28125 -13.695312 2.707031 -15.835938 3.5625 -17.671875 C 4.414062 -19.503906 5.632812 -20.921875 7.21875 -21.921875 C 8.8125 -22.929688 10.660156 -23.4375 12.765625 -23.4375 C 14.816406 -23.4375 16.597656 -22.96875 18.109375 -22.03125 C 19.628906 -21.09375 20.796875 -19.753906 21.609375 -18.015625 C 22.429688 -16.273438 22.84375 -14.226562 22.84375 -11.875 C 22.84375 -9.414062 22.410156 -7.265625 21.546875 -5.421875 C 20.691406 -3.585938 19.472656 -2.171875 17.890625 -1.171875 C 16.304688 -0.171875 14.457031 0.328125 12.34375 0.328125 Z M 12.375 -2.28125 C 14.726562 -2.28125 16.550781 -3.113281 17.84375 -4.78125 C 19.144531 -6.457031 19.796875 -8.8125 19.796875 -11.84375 C 19.796875 -14.75 19.191406 -16.972656 17.984375 -18.515625 C 16.773438 -20.054688 15.023438 -20.828125 12.734375 -20.828125 C 10.378906 -20.828125 8.550781 -19.992188 7.25 -18.328125 C 5.957031 -16.671875 5.3125 -14.320312 5.3125 -11.28125 C 5.3125 -8.351562 5.914062 -6.117188 7.125 -4.578125 C 8.332031 -3.046875 10.082031 -2.28125 12.375 -2.28125 Z M 12.375 -2.28125 "/></g></g></g><g fill="#131045" fill-opacity="1"><g transform="translate(127.309492, 258.371117)"><g><path d="M 12.34375 0.328125 C 10.269531 0.328125 8.476562 -0.132812 6.96875 -1.0625 C 5.46875 -2 4.3125 -3.34375 3.5 -5.09375 C 2.6875 -6.84375 2.28125 -8.894531 2.28125 -11.25 C 2.28125 -13.695312 2.707031 -15.835938 3.5625 -17.671875 C 4.414062 -19.503906 5.632812 -20.921875 7.21875 -21.921875 C 8.8125 -22.929688 10.660156 -23.4375 12.765625 -23.4375 C 14.816406 -23.4375 16.597656 -22.96875 18.109375 -22.03125 C 19.628906 -21.09375 20.796875 -19.753906 21.609375 -18.015625 C 22.429688 -16.273438 22.84375 -14.226562 22.84375 -11.875 C 22.84375 -9.414062 22.410156 -7.265625 21.546875 -5.421875 C 20.691406 -3.585938 19.472656 -2.171875 17.890625 -1.171875 C 16.304688 -0.171875 14.457031 0.328125 12.34375 0.328125 Z M 12.375 -2.28125 C 14.726562 -2.28125 16.550781 -3.113281 17.84375 -4.78125 C 19.144531 -6.457031 19.796875 -8.8125 19.796875 -11.84375 C 19.796875 -14.75 19.191406 -16.972656 17.984375 -18.515625 C 16.773438 -20.054688 15.023438 -20.828125 12.734375 -20.828125 C 10.378906 -20.828125 8.550781 -19.992188 7.25 -18.328125 C 5.957031 -16.671875 5.3125 -14.320312 5.3125 -11.28125 C 5.3125 -8.351562 5.914062 -6.117188 7.125 -4.578125 C 8.332031 -3.046875 10.082031 -2.28125 12.375 -2.28125 Z M 12.375 -2.28125 "/></g></g></g><g fill="#131045" fill-opacity="1"><g transform="translate(154.40244, 258.371117)"><g><path d="M 21.390625 -2.609375 C 22.109375 -2.609375 22.46875 -2.3125 22.46875 -1.71875 L 22.46875 -0.890625 C 22.46875 -0.296875 22.109375 0 21.390625 0 L 15.34375 0 C 14.613281 0 14.25 -0.296875 14.25 -0.890625 L 14.25 -1.71875 C 14.25 -2.3125 14.613281 -2.609375 15.34375 -2.609375 L 15.90625 -2.609375 L 6.96875 -11.28125 L 6.96875 -2.609375 L 7.828125 -2.609375 C 8.546875 -2.609375 8.90625 -2.3125 8.90625 -1.71875 L 8.90625 -0.890625 C 8.90625 -0.296875 8.546875 0 7.828125 0 L 3.140625 0 C 2.410156 0 2.046875 -0.296875 2.046875 -0.890625 L 2.046875 -1.71875 C 2.046875 -2.3125 2.410156 -2.609375 3.140625 -2.609375 L 4 -2.609375 L 4 -20.5 L 3.140625 -20.5 C 2.410156 -20.5 2.046875 -20.796875 2.046875 -21.390625 L 2.046875 -22.203125 C 2.046875 -22.796875 2.410156 -23.09375 3.140625 -23.09375 L 7.828125 -23.09375 C 8.546875 -23.09375 8.90625 -22.796875 8.90625 -22.203125 L 8.90625 -21.390625 C 8.90625 -20.796875 8.546875 -20.5 7.828125 -20.5 L 6.96875 -20.5 L 6.96875 -12.34375 L 15.96875 -20.5 L 15.3125 -20.5 C 14.601562 -20.5 14.25 -20.796875 14.25 -21.390625 L 14.25 -22.203125 C 14.25 -22.515625 14.320312 -22.738281 14.46875 -22.875 C 14.613281 -23.019531 14.851562 -23.09375 15.1875 -23.09375 L 20.890625 -23.09375 C 21.585938 -23.09375 21.9375 -22.796875 21.9375 -22.203125 L 21.9375 -21.390625 C 21.9375 -20.796875 21.585938 -20.5 20.890625 -20.5 L 19.640625 -20.5 L 10.125 -12.046875 L 19.90625 -2.609375 Z M 21.390625 -2.609375 "/></g></g></g><g fill="#131045" fill-opacity="1"><g transform="translate(180.472388, 258.371117)"><g><path d="M 21.9375 -23.09375 C 22.664062 -23.09375 23.03125 -22.796875 23.03125 -22.203125 L 23.03125 -21.390625 C 23.03125 -20.796875 22.664062 -20.5 21.9375 -20.5 L 21.09375 -20.5 L 13.765625 -0.71875 C 13.585938 -0.238281 13.234375 0 12.703125 0 L 11.71875 0 C 11.1875 0 10.832031 -0.238281 10.65625 -0.71875 L 3.328125 -20.5 L 2.46875 -20.5 C 1.769531 -20.5 1.421875 -20.796875 1.421875 -21.390625 L 1.421875 -22.203125 C 1.421875 -22.796875 1.769531 -23.09375 2.46875 -23.09375 L 7.265625 -23.09375 C 7.984375 -23.09375 8.34375 -22.796875 8.34375 -22.203125 L 8.34375 -21.390625 C 8.34375 -20.796875 7.984375 -20.5 7.265625 -20.5 L 6.40625 -20.5 L 12.34375 -4.21875 L 18.28125 -20.5 L 17.421875 -20.5 C 16.722656 -20.5 16.375 -20.796875 16.375 -21.390625 L 16.375 -22.203125 C 16.375 -22.796875 16.722656 -23.09375 17.421875 -23.09375 Z M 21.9375 -23.09375 "/></g></g></g><g fill="#131045" fill-opacity="1"><g transform="translate(206.872338, 258.371117)"><g><path d="M 18.25 -6.109375 C 18.53125 -6.109375 18.75 -6.015625 18.90625 -5.828125 C 19.0625 -5.640625 19.140625 -5.367188 19.140625 -5.015625 L 19.140625 -1.28125 C 19.140625 -0.9375 19.007812 -0.632812 18.75 -0.375 C 18.5 -0.125 18.1875 0 17.8125 0 L 3.140625 0 C 2.410156 0 2.046875 -0.296875 2.046875 -0.890625 L 2.046875 -1.71875 C 2.046875 -2.3125 2.410156 -2.609375 3.140625 -2.609375 L 4 -2.609375 L 4 -20.5 L 3.140625 -20.5 C 2.410156 -20.5 2.046875 -20.796875 2.046875 -21.390625 L 2.046875 -22.203125 C 2.046875 -22.796875 2.410156 -23.09375 3.140625 -23.09375 L 17.65625 -23.09375 C 18.03125 -23.09375 18.335938 -22.96875 18.578125 -22.71875 C 18.816406 -22.46875 18.9375 -22.15625 18.9375 -21.78125 L 18.9375 -18.71875 C 18.9375 -17.988281 18.648438 -17.625 18.078125 -17.625 L 17.21875 -17.625 C 16.65625 -17.625 16.375 -17.988281 16.375 -18.71875 L 16.375 -20.5 L 6.96875 -20.5 L 6.96875 -13.265625 L 14.21875 -13.265625 C 14.488281 -13.265625 14.71875 -13.171875 14.90625 -12.984375 C 15.09375 -12.796875 15.1875 -12.570312 15.1875 -12.3125 L 15.1875 -11.609375 C 15.1875 -11.347656 15.09375 -11.125 14.90625 -10.9375 C 14.71875 -10.75 14.488281 -10.65625 14.21875 -10.65625 L 6.96875 -10.65625 L 6.96875 -2.609375 L 16.53125 -2.609375 L 16.53125 -5.015625 C 16.53125 -5.742188 16.828125 -6.109375 17.421875 -6.109375 Z M 18.25 -6.109375 "/></g></g></g><g fill="#131045" fill-opacity="1"><g transform="translate(230.302294, 258.371117)"><g><path d="M 20.5625 -2.609375 C 20.882812 -2.609375 21.144531 -2.53125 21.34375 -2.375 C 21.539062 -2.21875 21.640625 -2 21.640625 -1.71875 L 21.640625 -0.890625 C 21.640625 -0.296875 21.28125 0 20.5625 0 L 17.8125 0 C 17.445312 0 17.148438 -0.164062 16.921875 -0.5 L 13.234375 -6.46875 C 12.617188 -7.476562 12.144531 -8.171875 11.8125 -8.546875 C 11.476562 -8.921875 11.101562 -9.164062 10.6875 -9.28125 C 10.269531 -9.40625 9.613281 -9.46875 8.71875 -9.46875 L 6.96875 -9.46875 L 6.96875 -2.609375 L 7.828125 -2.609375 C 8.546875 -2.609375 8.90625 -2.3125 8.90625 -1.71875 L 8.90625 -0.890625 C 8.90625 -0.296875 8.546875 0 7.828125 0 L 3.140625 0 C 2.410156 0 2.046875 -0.296875 2.046875 -0.890625 L 2.046875 -1.71875 C 2.046875 -2.3125 2.410156 -2.609375 3.140625 -2.609375 L 4 -2.609375 L 4 -20.5 L 3.140625 -20.5 C 2.410156 -20.5 2.046875 -20.796875 2.046875 -21.390625 L 2.046875 -22.203125 C 2.046875 -22.796875 2.410156 -23.09375 3.140625 -23.09375 L 10.5625 -23.09375 C 16.34375 -23.09375 19.234375 -20.984375 19.234375 -16.765625 C 19.234375 -15.046875 18.769531 -13.609375 17.84375 -12.453125 C 16.925781 -11.296875 15.628906 -10.5 13.953125 -10.0625 C 14.578125 -9.6875 15.1875 -8.972656 15.78125 -7.921875 L 19.078125 -2.609375 Z M 10.59375 -12.078125 C 12.507812 -12.078125 13.921875 -12.457031 14.828125 -13.21875 C 15.742188 -13.976562 16.203125 -15.140625 16.203125 -16.703125 C 16.203125 -18.046875 15.742188 -19.015625 14.828125 -19.609375 C 13.921875 -20.203125 12.46875 -20.5 10.46875 -20.5 L 6.96875 -20.5 L 6.96875 -12.078125 Z M 10.59375 -12.078125 "/></g></g></g><g fill="#131045" fill-opacity="1"><g transform="translate(255.316251, 258.371117)"><g><path d="M 10.921875 -13.03125 C 12.765625 -12.457031 14.203125 -11.863281 15.234375 -11.25 C 16.273438 -10.632812 17.019531 -9.921875 17.46875 -9.109375 C 17.925781 -8.296875 18.15625 -7.296875 18.15625 -6.109375 C 18.15625 -4.898438 17.816406 -3.804688 17.140625 -2.828125 C 16.472656 -1.847656 15.546875 -1.078125 14.359375 -0.515625 C 13.171875 0.046875 11.828125 0.328125 10.328125 0.328125 C 8.703125 0.328125 7.265625 0.09375 6.015625 -0.375 C 4.773438 -0.851562 3.816406 -1.519531 3.140625 -2.375 C 2.472656 -3.226562 2.140625 -4.226562 2.140625 -5.375 C 2.140625 -6.082031 2.320312 -6.644531 2.6875 -7.0625 C 3.050781 -7.476562 3.550781 -7.6875 4.1875 -7.6875 C 4.738281 -7.6875 5.195312 -7.507812 5.5625 -7.15625 C 5.925781 -6.8125 6.109375 -6.375 6.109375 -5.84375 C 6.109375 -5.132812 5.832031 -4.582031 5.28125 -4.1875 C 5.695312 -3.613281 6.332031 -3.148438 7.1875 -2.796875 C 8.050781 -2.453125 9.066406 -2.28125 10.234375 -2.28125 C 11.722656 -2.28125 12.910156 -2.613281 13.796875 -3.28125 C 14.691406 -3.957031 15.140625 -4.84375 15.140625 -5.9375 C 15.140625 -6.707031 15.007812 -7.316406 14.75 -7.765625 C 14.488281 -8.222656 14.003906 -8.628906 13.296875 -8.984375 C 12.597656 -9.347656 11.5 -9.773438 10 -10.265625 C 8.15625 -10.859375 6.703125 -11.46875 5.640625 -12.09375 C 4.585938 -12.71875 3.820312 -13.429688 3.34375 -14.234375 C 2.875 -15.035156 2.640625 -16.03125 2.640625 -17.21875 C 2.640625 -18.414062 2.976562 -19.484375 3.65625 -20.421875 C 4.34375 -21.367188 5.296875 -22.109375 6.515625 -22.640625 C 7.734375 -23.171875 9.125 -23.4375 10.6875 -23.4375 C 12.84375 -23.4375 14.546875 -22.960938 15.796875 -22.015625 C 17.054688 -21.066406 17.6875 -19.78125 17.6875 -18.15625 C 17.6875 -17.445312 17.503906 -16.882812 17.140625 -16.46875 C 16.773438 -16.050781 16.273438 -15.84375 15.640625 -15.84375 C 15.085938 -15.84375 14.628906 -16.007812 14.265625 -16.34375 C 13.910156 -16.6875 13.734375 -17.125 13.734375 -17.65625 C 13.734375 -18.269531 13.953125 -18.773438 14.390625 -19.171875 C 13.859375 -20.273438 12.535156 -20.828125 10.421875 -20.828125 C 8.972656 -20.828125 7.804688 -20.503906 6.921875 -19.859375 C 6.046875 -19.222656 5.609375 -18.378906 5.609375 -17.328125 C 5.609375 -16.597656 5.753906 -16.007812 6.046875 -15.5625 C 6.347656 -15.113281 6.867188 -14.695312 7.609375 -14.3125 C 8.347656 -13.925781 9.453125 -13.5 10.921875 -13.03125 Z M 10.921875 -13.03125 "/></g></g></g><g fill="#131045" fill-opacity="1"><g transform="translate(277.624218, 258.371117)"><g><path d="M 18.25 -6.109375 C 18.53125 -6.109375 18.75 -6.015625 18.90625 -5.828125 C 19.0625 -5.640625 19.140625 -5.367188 19.140625 -5.015625 L 19.140625 -1.28125 C 19.140625 -0.9375 19.007812 -0.632812 18.75 -0.375 C 18.5 -0.125 18.1875 0 17.8125 0 L 3.140625 0 C 2.410156 0 2.046875 -0.296875 2.046875 -0.890625 L 2.046875 -1.71875 C 2.046875 -2.3125 2.410156 -2.609375 3.140625 -2.609375 L 4 -2.609375 L 4 -20.5 L 3.140625 -20.5 C 2.410156 -20.5 2.046875 -20.796875 2.046875 -21.390625 L 2.046875 -22.203125 C 2.046875 -22.796875 2.410156 -23.09375 3.140625 -23.09375 L 17.65625 -23.09375 C 18.03125 -23.09375 18.335938 -22.96875 18.578125 -22.71875 C 18.816406 -22.46875 18.9375 -22.15625 18.9375 -21.78125 L 18.9375 -18.71875 C 18.9375 -17.988281 18.648438 -17.625 18.078125 -17.625 L 17.21875 -17.625 C 16.65625 -17.625 16.375 -17.988281 16.375 -18.71875 L 16.375 -20.5 L 6.96875 -20.5 L 6.96875 -13.265625 L 14.21875 -13.265625 C 14.488281 -13.265625 14.71875 -13.171875 14.90625 -12.984375 C 15.09375 -12.796875 15.1875 -12.570312 15.1875 -12.3125 L 15.1875 -11.609375 C 15.1875 -11.347656 15.09375 -11.125 14.90625 -10.9375 C 14.71875 -10.75 14.488281 -10.65625 14.21875 -10.65625 L 6.96875 -10.65625 L 6.96875 -2.609375 L 16.53125 -2.609375 L 16.53125 -5.015625 C 16.53125 -5.742188 16.828125 -6.109375 17.421875 -6.109375 Z M 18.25 -6.109375 "/></g></g></g><g clip-path="url(#id1)"><path fill="#3b2f4a" d="M 221.707031 89.925781 L 220.933594 94.652344 C 220.847656 95.339844 221.105469 95.941406 221.621094 96.371094 C 222.136719 96.714844 222.910156 96.800781 223.425781 96.457031 L 227.378906 94.308594 L 231.332031 96.457031 C 231.59375 96.628906 231.851562 96.714844 232.195312 96.714844 C 232.539062 96.714844 232.882812 96.628906 233.226562 96.371094 C 233.742188 96.027344 234 95.339844 233.914062 94.652344 L 233.140625 89.925781 L 236.40625 86.574219 C 236.835938 86.144531 237.007812 85.457031 236.835938 84.855469 C 236.664062 84.25 235.976562 83.734375 235.375 83.648438 L 230.902344 82.960938 L 228.925781 78.664062 C 228.667969 78.0625 228.066406 77.632812 227.378906 77.632812 C 226.691406 77.632812 226.089844 77.976562 225.832031 78.664062 L 223.855469 82.960938 L 219.386719 83.648438 C 218.785156 83.734375 218.183594 84.164062 218.011719 84.769531 C 217.839844 85.371094 217.925781 86.058594 218.441406 86.488281 Z M 221.707031 89.925781 " fill-opacity="1" fill-rule="nonzero"/></g><g clip-path="url(#id2)"><path fill="#3b2f4a" d="M 142.625 89.925781 L 141.851562 94.652344 C 141.765625 95.339844 142.023438 95.941406 142.539062 96.371094 C 143.054688 96.714844 143.828125 96.800781 144.34375 96.457031 L 148.296875 94.308594 L 152.253906 96.457031 C 152.511719 96.628906 152.769531 96.714844 153.113281 96.714844 C 153.457031 96.714844 153.800781 96.628906 154.144531 96.371094 C 154.660156 96.027344 154.917969 95.339844 154.832031 94.652344 L 154.058594 89.925781 L 157.324219 86.574219 C 157.753906 86.144531 157.925781 85.457031 157.753906 84.855469 C 157.582031 84.25 156.894531 83.734375 156.292969 83.648438 L 151.824219 82.960938 L 149.847656 78.664062 C 149.585938 78.0625 148.984375 77.71875 148.296875 77.71875 C 147.609375 77.71875 147.007812 78.0625 146.75 78.75 L 144.773438 83.046875 L 140.304688 83.648438 C 139.703125 83.734375 139.101562 84.164062 138.929688 84.769531 C 138.757812 85.371094 138.84375 86.058594 139.359375 86.488281 Z M 142.625 89.925781 " fill-opacity="1" fill-rule="nonzero"/></g><path fill="#3b2f4a" d="M 181.734375 105.570312 L 180.875 110.898438 C 180.789062 111.585938 181.046875 112.1875 181.5625 112.617188 C 182.078125 112.960938 182.769531 113.046875 183.371094 112.703125 L 187.839844 110.210938 L 192.308594 112.703125 C 192.566406 112.875 192.824219 112.960938 193.167969 112.960938 C 193.511719 112.960938 193.855469 112.875 194.199219 112.617188 C 194.714844 112.273438 194.972656 111.585938 194.886719 110.898438 L 194.027344 105.570312 L 197.722656 101.789062 C 198.152344 101.359375 198.324219 100.671875 198.152344 100.066406 C 197.980469 99.464844 197.378906 99.035156 196.777344 98.949219 L 191.707031 98.175781 L 189.472656 93.363281 C 189.214844 92.761719 188.613281 92.332031 187.925781 92.332031 C 187.238281 92.332031 186.636719 92.675781 186.378906 93.363281 L 184.144531 98.175781 L 179.070312 98.949219 C 178.46875 99.035156 177.867188 99.464844 177.695312 100.066406 C 177.523438 100.671875 177.609375 101.359375 178.125 101.789062 Z M 185.433594 101.445312 C 186.035156 101.359375 186.464844 101.015625 186.722656 100.496094 L 187.839844 98.175781 L 188.957031 100.496094 C 189.214844 101.015625 189.644531 101.359375 190.246094 101.445312 L 192.910156 101.875 L 190.933594 103.851562 C 190.589844 104.28125 190.417969 104.796875 190.503906 105.3125 L 190.933594 108.0625 L 188.699219 106.773438 C 188.441406 106.601562 188.183594 106.515625 187.839844 106.515625 C 187.496094 106.515625 187.238281 106.601562 186.980469 106.773438 L 184.746094 107.976562 L 185.175781 105.226562 C 185.261719 104.710938 185.089844 104.109375 184.746094 103.765625 L 182.855469 101.789062 Z M 185.433594 101.445312 " fill-opacity="1" fill-rule="nonzero"/><path fill="#3b2f4a" d="M 196.691406 150.527344 L 191.621094 149.753906 L 189.386719 144.9375 C 189.128906 144.335938 188.527344 143.90625 187.839844 143.90625 C 187.152344 143.90625 186.550781 144.25 186.292969 144.9375 L 184.058594 149.753906 L 178.984375 150.527344 C 178.382812 150.613281 177.78125 151.042969 177.609375 151.644531 C 177.4375 152.246094 177.523438 152.933594 178.039062 153.363281 L 181.734375 157.144531 L 180.875 162.472656 C 180.789062 163.160156 181.046875 163.761719 181.5625 164.195312 C 182.078125 164.539062 182.769531 164.625 183.371094 164.28125 L 187.839844 161.785156 L 192.308594 164.28125 C 192.566406 164.453125 192.824219 164.539062 193.167969 164.539062 C 193.511719 164.539062 193.855469 164.453125 194.199219 164.195312 C 194.714844 163.847656 194.972656 163.160156 194.886719 162.472656 L 194.027344 157.144531 L 197.722656 153.363281 C 198.152344 152.933594 198.324219 152.246094 198.152344 151.644531 C 197.980469 151.042969 197.292969 150.613281 196.691406 150.527344 Z M 190.933594 155.425781 C 190.589844 155.855469 190.417969 156.371094 190.503906 156.886719 L 190.933594 159.636719 L 188.699219 158.347656 C 188.441406 158.175781 188.183594 158.089844 187.839844 158.089844 C 187.496094 158.089844 187.238281 158.175781 186.980469 158.347656 L 184.746094 159.550781 L 185.175781 156.800781 C 185.261719 156.285156 185.089844 155.683594 184.746094 155.339844 L 182.855469 153.363281 L 185.519531 152.933594 C 186.121094 152.847656 186.550781 152.503906 186.808594 151.988281 L 187.925781 149.667969 L 189.042969 151.988281 C 189.300781 152.503906 189.730469 152.847656 190.332031 152.933594 L 192.996094 153.363281 Z M 190.933594 155.425781 " fill-opacity="1" fill-rule="nonzero"/><g clip-path="url(#id3)"><path fill="#3b2f4a" d="M 232.367188 105.226562 C 231.765625 105.226562 231.160156 105.3125 230.558594 105.65625 L 189.558594 123.878906 L 188.957031 124.136719 C 188.527344 124.308594 188.011719 124.394531 187.582031 124.394531 C 187.152344 124.394531 186.722656 124.308594 186.292969 124.136719 L 186.121094 124.136719 L 145.03125 106.945312 C 144.429688 106.6875 143.914062 106.601562 143.3125 106.601562 C 140.992188 106.601562 138.84375 108.492188 138.84375 111.070312 L 138.84375 165.484375 C 138.84375 167.289062 139.960938 168.921875 141.59375 169.609375 L 186.121094 187.402344 L 186.378906 187.488281 C 186.808594 187.660156 187.238281 187.746094 187.667969 187.746094 C 188.097656 187.746094 188.527344 187.660156 188.871094 187.488281 L 234 170.296875 C 235.71875 169.609375 236.835938 167.976562 236.835938 166.171875 L 236.835938 109.695312 C 236.835938 107.117188 234.6875 105.226562 232.367188 105.226562 Z M 200.132812 155.769531 L 197.636719 158.347656 L 198.238281 161.957031 C 198.582031 163.933594 197.722656 165.828125 196.089844 167.03125 C 195.230469 167.632812 194.199219 167.976562 193.082031 167.976562 C 192.222656 167.976562 191.363281 167.804688 190.589844 167.375 L 189.472656 166.773438 L 189.472656 183.621094 L 187.496094 184.394531 L 186.035156 183.792969 L 186.035156 166.773438 L 184.917969 167.375 C 183.199219 168.320312 181.046875 168.234375 179.414062 167.117188 C 177.78125 166 177.007812 164.019531 177.265625 162.042969 L 177.867188 158.433594 L 175.375 155.855469 C 174 154.480469 173.570312 152.417969 174.171875 150.613281 C 174.773438 148.808594 176.40625 147.429688 178.296875 147.171875 L 181.476562 146.65625 L 182.941406 143.476562 C 183.542969 142.1875 184.574219 141.242188 185.863281 140.8125 L 185.863281 127.746094 C 186.292969 127.832031 186.808594 127.917969 187.238281 127.917969 C 187.925781 127.917969 188.613281 127.832031 189.300781 127.574219 L 189.300781 140.8125 C 190.589844 141.242188 191.621094 142.1875 192.222656 143.476562 L 193.683594 146.65625 L 196.863281 147.171875 C 198.753906 147.429688 200.390625 148.808594 200.992188 150.613281 C 201.9375 152.417969 201.507812 154.394531 200.132812 155.769531 Z M 200.132812 155.769531 " fill-opacity="1" fill-rule="nonzero"/></g></svg>