<svg xmlns="http://www.w3.org/2000/svg" xmlns:xlink="http://www.w3.org/1999/xlink" width="500" zoomAndPan="magnify" viewBox="0 0 375 374.999991" height="500" preserveAspectRatio="xMidYMid meet" version="1.0"><defs><g/><clipPath id="id1"><path d="M 57.136719 0 L 108 0 L 108 51 L 57.136719 51 Z M 57.136719 0 " clip-rule="nonzero"/></clipPath><clipPath id="id2"><path d="M 57.136719 73 L 318 73 L 318 292.5 L 57.136719 292.5 Z M 57.136719 73 " clip-rule="nonzero"/></clipPath></defs><g fill="#131045" fill-opacity="1"><g transform="translate(0.801054, 373.231895)"><g><path d="M 25.453125 -21.09375 C 27.890625 -20.457031 29.765625 -19.328125 31.078125 -17.703125 C 32.390625 -16.085938 33.046875 -14.097656 33.046875 -11.734375 C 33.046875 -8.046875 31.660156 -5.164062 28.890625 -3.09375 C 26.117188 -1.03125 22.242188 0 17.265625 0 L 5.25 0 C 4.039062 0 3.4375 -0.5 3.4375 -1.5 L 3.4375 -2.875 C 3.4375 -3.875 4.039062 -4.375 5.25 -4.375 L 6.703125 -4.375 L 6.703125 -34.375 L 5.25 -34.375 C 4.039062 -34.375 3.4375 -34.867188 3.4375 -35.859375 L 3.4375 -37.25 C 3.4375 -38.238281 4.039062 -38.734375 5.25 -38.734375 L 17.875 -38.734375 C 26.800781 -38.734375 31.265625 -35.691406 31.265625 -29.609375 C 31.265625 -27.722656 30.765625 -26.0625 29.765625 -24.625 C 28.773438 -23.1875 27.335938 -22.007812 25.453125 -21.09375 Z M 11.671875 -34.375 L 11.671875 -22.359375 L 17.21875 -22.359375 C 20.125 -22.359375 22.34375 -22.898438 23.875 -23.984375 C 25.40625 -25.078125 26.171875 -26.65625 26.171875 -28.71875 C 26.171875 -30.75 25.488281 -32.195312 24.125 -33.0625 C 22.757812 -33.9375 20.492188 -34.375 17.328125 -34.375 Z M 16.546875 -4.375 C 20.535156 -4.375 23.429688 -4.960938 25.234375 -6.140625 C 27.046875 -7.328125 27.953125 -9.226562 27.953125 -11.84375 C 27.953125 -15.9375 24.867188 -17.984375 18.703125 -17.984375 L 11.671875 -17.984375 L 11.671875 -4.375 Z M 16.546875 -4.375 "/></g></g></g><g fill="#131045" fill-opacity="1"><g transform="translate(40.70089, 373.231895)"><g><path d="M 20.703125 0.546875 C 17.234375 0.546875 14.234375 -0.234375 11.703125 -1.796875 C 9.179688 -3.367188 7.234375 -5.617188 5.859375 -8.546875 C 4.492188 -11.484375 3.8125 -14.925781 3.8125 -18.875 C 3.8125 -22.96875 4.53125 -26.554688 5.96875 -29.640625 C 7.414062 -32.722656 9.46875 -35.101562 12.125 -36.78125 C 14.78125 -38.457031 17.878906 -39.296875 21.421875 -39.296875 C 24.847656 -39.296875 27.832031 -38.507812 30.375 -36.9375 C 32.925781 -35.375 34.882812 -33.132812 36.25 -30.21875 C 37.613281 -27.300781 38.296875 -23.867188 38.296875 -19.921875 C 38.296875 -15.785156 37.578125 -12.175781 36.140625 -9.09375 C 34.703125 -6.019531 32.65625 -3.644531 30 -1.96875 C 27.34375 -0.289062 24.242188 0.546875 20.703125 0.546875 Z M 20.75 -3.8125 C 24.695312 -3.8125 27.757812 -5.210938 29.9375 -8.015625 C 32.113281 -10.828125 33.203125 -14.78125 33.203125 -19.875 C 33.203125 -24.738281 32.1875 -28.460938 30.15625 -31.046875 C 28.132812 -33.628906 25.203125 -34.921875 21.359375 -34.921875 C 17.410156 -34.921875 14.347656 -33.523438 12.171875 -30.734375 C 9.992188 -27.953125 8.90625 -24.015625 8.90625 -18.921875 C 8.90625 -14.015625 9.921875 -10.269531 11.953125 -7.6875 C 13.984375 -5.101562 16.914062 -3.8125 20.75 -3.8125 Z M 20.75 -3.8125 "/></g></g></g><g fill="#131045" fill-opacity="1"><g transform="translate(86.134687, 373.231895)"><g><path d="M 20.703125 0.546875 C 17.234375 0.546875 14.234375 -0.234375 11.703125 -1.796875 C 9.179688 -3.367188 7.234375 -5.617188 5.859375 -8.546875 C 4.492188 -11.484375 3.8125 -14.925781 3.8125 -18.875 C 3.8125 -22.96875 4.53125 -26.554688 5.96875 -29.640625 C 7.414062 -32.722656 9.46875 -35.101562 12.125 -36.78125 C 14.78125 -38.457031 17.878906 -39.296875 21.421875 -39.296875 C 24.847656 -39.296875 27.832031 -38.507812 30.375 -36.9375 C 32.925781 -35.375 34.882812 -33.132812 36.25 -30.21875 C 37.613281 -27.300781 38.296875 -23.867188 38.296875 -19.921875 C 38.296875 -15.785156 37.578125 -12.175781 36.140625 -9.09375 C 34.703125 -6.019531 32.65625 -3.644531 30 -1.96875 C 27.34375 -0.289062 24.242188 0.546875 20.703125 0.546875 Z M 20.75 -3.8125 C 24.695312 -3.8125 27.757812 -5.210938 29.9375 -8.015625 C 32.113281 -10.828125 33.203125 -14.78125 33.203125 -19.875 C 33.203125 -24.738281 32.1875 -28.460938 30.15625 -31.046875 C 28.132812 -33.628906 25.203125 -34.921875 21.359375 -34.921875 C 17.410156 -34.921875 14.347656 -33.523438 12.171875 -30.734375 C 9.992188 -27.953125 8.90625 -24.015625 8.90625 -18.921875 C 8.90625 -14.015625 9.921875 -10.269531 11.953125 -7.6875 C 13.984375 -5.101562 16.914062 -3.8125 20.75 -3.8125 Z M 20.75 -3.8125 "/></g></g></g><g fill="#131045" fill-opacity="1"><g transform="translate(131.568483, 373.231895)"><g><path d="M 35.859375 -4.375 C 37.078125 -4.375 37.6875 -3.875 37.6875 -2.875 L 37.6875 -1.5 C 37.6875 -0.5 37.078125 0 35.859375 0 L 25.734375 0 C 24.515625 0 23.90625 -0.5 23.90625 -1.5 L 23.90625 -2.875 C 23.90625 -3.875 24.515625 -4.375 25.734375 -4.375 L 26.671875 -4.375 L 11.671875 -18.921875 L 11.671875 -4.375 L 13.109375 -4.375 C 14.328125 -4.375 14.9375 -3.875 14.9375 -2.875 L 14.9375 -1.5 C 14.9375 -0.5 14.328125 0 13.109375 0 L 5.25 0 C 4.039062 0 3.4375 -0.5 3.4375 -1.5 L 3.4375 -2.875 C 3.4375 -3.875 4.039062 -4.375 5.25 -4.375 L 6.703125 -4.375 L 6.703125 -34.375 L 5.25 -34.375 C 4.039062 -34.375 3.4375 -34.867188 3.4375 -35.859375 L 3.4375 -37.25 C 3.4375 -38.238281 4.039062 -38.734375 5.25 -38.734375 L 13.109375 -38.734375 C 14.328125 -38.734375 14.9375 -38.238281 14.9375 -37.25 L 14.9375 -35.859375 C 14.9375 -34.867188 14.328125 -34.375 13.109375 -34.375 L 11.671875 -34.375 L 11.671875 -20.703125 L 26.78125 -34.375 L 25.671875 -34.375 C 24.492188 -34.375 23.90625 -34.867188 23.90625 -35.859375 L 23.90625 -37.25 C 23.90625 -37.757812 24.023438 -38.132812 24.265625 -38.375 C 24.503906 -38.613281 24.898438 -38.734375 25.453125 -38.734375 L 35.03125 -38.734375 C 36.207031 -38.734375 36.796875 -38.238281 36.796875 -37.25 L 36.796875 -35.859375 C 36.796875 -34.867188 36.207031 -34.375 35.03125 -34.375 L 32.921875 -34.375 L 16.984375 -20.203125 L 33.375 -4.375 Z M 35.859375 -4.375 "/></g></g></g><g fill="#131045" fill-opacity="1"><g transform="translate(175.286751, 373.231895)"><g><path d="M 36.796875 -38.734375 C 38.015625 -38.734375 38.625 -38.238281 38.625 -37.25 L 38.625 -35.859375 C 38.625 -34.867188 38.015625 -34.375 36.796875 -34.375 L 35.359375 -34.375 L 23.078125 -1.21875 C 22.785156 -0.40625 22.195312 0 21.3125 0 L 19.640625 0 C 18.753906 0 18.164062 -0.40625 17.875 -1.21875 L 5.59375 -34.375 L 4.15625 -34.375 C 2.96875 -34.375 2.375 -34.867188 2.375 -35.859375 L 2.375 -37.25 C 2.375 -38.238281 2.96875 -38.734375 4.15625 -38.734375 L 12.171875 -38.734375 C 13.390625 -38.734375 14 -38.238281 14 -37.25 L 14 -35.859375 C 14 -34.867188 13.390625 -34.375 12.171875 -34.375 L 10.734375 -34.375 L 20.703125 -7.078125 L 30.65625 -34.375 L 29.21875 -34.375 C 28.039062 -34.375 27.453125 -34.867188 27.453125 -35.859375 L 27.453125 -37.25 C 27.453125 -38.238281 28.039062 -38.734375 29.21875 -38.734375 Z M 36.796875 -38.734375 "/></g></g></g><g fill="#131045" fill-opacity="1"><g transform="translate(219.558419, 373.231895)"><g><path d="M 30.609375 -10.234375 C 31.085938 -10.234375 31.453125 -10.078125 31.703125 -9.765625 C 31.960938 -9.453125 32.09375 -9 32.09375 -8.40625 L 32.09375 -2.15625 C 32.09375 -1.5625 31.878906 -1.050781 31.453125 -0.625 C 31.035156 -0.207031 30.515625 0 29.890625 0 L 5.25 0 C 4.039062 0 3.4375 -0.5 3.4375 -1.5 L 3.4375 -2.875 C 3.4375 -3.875 4.039062 -4.375 5.25 -4.375 L 6.703125 -4.375 L 6.703125 -34.375 L 5.25 -34.375 C 4.039062 -34.375 3.4375 -34.867188 3.4375 -35.859375 L 3.4375 -37.25 C 3.4375 -38.238281 4.039062 -38.734375 5.25 -38.734375 L 29.609375 -38.734375 C 30.234375 -38.734375 30.75 -38.519531 31.15625 -38.09375 C 31.5625 -37.675781 31.765625 -37.15625 31.765625 -36.53125 L 31.765625 -31.375 C 31.765625 -30.15625 31.285156 -29.546875 30.328125 -29.546875 L 28.890625 -29.546875 C 27.929688 -29.546875 27.453125 -30.15625 27.453125 -31.375 L 27.453125 -34.375 L 11.671875 -34.375 L 11.671875 -22.25 L 23.859375 -22.25 C 24.296875 -22.25 24.671875 -22.09375 24.984375 -21.78125 C 25.296875 -21.46875 25.453125 -21.085938 25.453125 -20.640625 L 25.453125 -19.484375 C 25.453125 -19.035156 25.296875 -18.65625 24.984375 -18.34375 C 24.671875 -18.03125 24.296875 -17.875 23.859375 -17.875 L 11.671875 -17.875 L 11.671875 -4.375 L 27.734375 -4.375 L 27.734375 -8.40625 C 27.734375 -9.625 28.226562 -10.234375 29.21875 -10.234375 Z M 30.609375 -10.234375 "/></g></g></g><g fill="#131045" fill-opacity="1"><g transform="translate(258.849525, 373.231895)"><g><path d="M 34.484375 -4.375 C 35.035156 -4.375 35.476562 -4.242188 35.8125 -3.984375 C 36.144531 -3.722656 36.3125 -3.351562 36.3125 -2.875 L 36.3125 -1.5 C 36.3125 -0.5 35.703125 0 34.484375 0 L 29.890625 0 C 29.253906 0 28.753906 -0.273438 28.390625 -0.828125 L 22.1875 -10.84375 C 21.15625 -12.539062 20.363281 -13.703125 19.8125 -14.328125 C 19.257812 -14.960938 18.628906 -15.378906 17.921875 -15.578125 C 17.222656 -15.785156 16.117188 -15.890625 14.609375 -15.890625 L 11.671875 -15.890625 L 11.671875 -4.375 L 13.109375 -4.375 C 14.328125 -4.375 14.9375 -3.875 14.9375 -2.875 L 14.9375 -1.5 C 14.9375 -0.5 14.328125 0 13.109375 0 L 5.25 0 C 4.039062 0 3.4375 -0.5 3.4375 -1.5 L 3.4375 -2.875 C 3.4375 -3.875 4.039062 -4.375 5.25 -4.375 L 6.703125 -4.375 L 6.703125 -34.375 L 5.25 -34.375 C 4.039062 -34.375 3.4375 -34.867188 3.4375 -35.859375 L 3.4375 -37.25 C 3.4375 -38.238281 4.039062 -38.734375 5.25 -38.734375 L 17.703125 -38.734375 C 27.410156 -38.734375 32.265625 -35.191406 32.265625 -28.109375 C 32.265625 -25.234375 31.488281 -22.828125 29.9375 -20.890625 C 28.382812 -18.953125 26.207031 -17.613281 23.40625 -16.875 C 24.4375 -16.25 25.453125 -15.050781 26.453125 -13.28125 L 31.984375 -4.375 Z M 17.765625 -20.25 C 20.972656 -20.25 23.34375 -20.882812 24.875 -22.15625 C 26.40625 -23.4375 27.171875 -25.382812 27.171875 -28 C 27.171875 -30.25 26.40625 -31.875 24.875 -32.875 C 23.34375 -33.875 20.898438 -34.375 17.546875 -34.375 L 11.671875 -34.375 L 11.671875 -20.25 Z M 17.765625 -20.25 "/></g></g></g><g fill="#131045" fill-opacity="1"><g transform="translate(300.796937, 373.231895)"><g><path d="M 18.3125 -21.859375 C 21.414062 -20.898438 23.832031 -19.90625 25.5625 -18.875 C 27.300781 -17.84375 28.546875 -16.644531 29.296875 -15.28125 C 30.054688 -13.914062 30.4375 -12.234375 30.4375 -10.234375 C 30.4375 -8.203125 29.875 -6.363281 28.75 -4.71875 C 27.625 -3.082031 26.066406 -1.796875 24.078125 -0.859375 C 22.085938 0.078125 19.835938 0.546875 17.328125 0.546875 C 14.597656 0.546875 12.1875 0.148438 10.09375 -0.640625 C 8.007812 -1.429688 6.40625 -2.546875 5.28125 -3.984375 C 4.15625 -5.421875 3.59375 -7.097656 3.59375 -9.015625 C 3.59375 -10.203125 3.894531 -11.144531 4.5 -11.84375 C 5.113281 -12.539062 5.957031 -12.890625 7.03125 -12.890625 C 7.945312 -12.890625 8.707031 -12.59375 9.3125 -12 C 9.925781 -11.414062 10.234375 -10.679688 10.234375 -9.796875 C 10.234375 -8.617188 9.773438 -7.695312 8.859375 -7.03125 C 9.554688 -6.070312 10.625 -5.296875 12.0625 -4.703125 C 13.5 -4.109375 15.195312 -3.8125 17.15625 -3.8125 C 19.664062 -3.8125 21.664062 -4.375 23.15625 -5.5 C 24.65625 -6.625 25.40625 -8.113281 25.40625 -9.96875 C 25.40625 -11.257812 25.179688 -12.28125 24.734375 -13.03125 C 24.296875 -13.789062 23.484375 -14.472656 22.296875 -15.078125 C 21.117188 -15.691406 19.273438 -16.40625 16.765625 -17.21875 C 13.671875 -18.207031 11.238281 -19.226562 9.46875 -20.28125 C 7.695312 -21.332031 6.410156 -22.53125 5.609375 -23.875 C 4.816406 -25.226562 4.421875 -26.898438 4.421875 -28.890625 C 4.421875 -30.878906 4.992188 -32.664062 6.140625 -34.25 C 7.285156 -35.84375 8.878906 -37.082031 10.921875 -37.96875 C 12.972656 -38.851562 15.3125 -39.296875 17.9375 -39.296875 C 21.550781 -39.296875 24.410156 -38.5 26.515625 -36.90625 C 28.617188 -35.320312 29.671875 -33.164062 29.671875 -30.4375 C 29.671875 -29.257812 29.363281 -28.316406 28.75 -27.609375 C 28.144531 -26.910156 27.304688 -26.5625 26.234375 -26.5625 C 25.304688 -26.5625 24.535156 -26.847656 23.921875 -27.421875 C 23.316406 -27.992188 23.015625 -28.722656 23.015625 -29.609375 C 23.015625 -30.640625 23.382812 -31.488281 24.125 -32.15625 C 23.238281 -34 21.023438 -34.921875 17.484375 -34.921875 C 15.054688 -34.921875 13.101562 -34.382812 11.625 -33.3125 C 10.144531 -32.25 9.40625 -30.832031 9.40625 -29.0625 C 9.40625 -27.84375 9.65625 -26.851562 10.15625 -26.09375 C 10.65625 -25.332031 11.519531 -24.628906 12.75 -23.984375 C 13.988281 -23.335938 15.84375 -22.628906 18.3125 -21.859375 Z M 18.3125 -21.859375 "/></g></g></g><g fill="#131045" fill-opacity="1"><g transform="translate(338.206512, 373.231895)"><g><path d="M 30.609375 -10.234375 C 31.085938 -10.234375 31.453125 -10.078125 31.703125 -9.765625 C 31.960938 -9.453125 32.09375 -9 32.09375 -8.40625 L 32.09375 -2.15625 C 32.09375 -1.5625 31.878906 -1.050781 31.453125 -0.625 C 31.035156 -0.207031 30.515625 0 29.890625 0 L 5.25 0 C 4.039062 0 3.4375 -0.5 3.4375 -1.5 L 3.4375 -2.875 C 3.4375 -3.875 4.039062 -4.375 5.25 -4.375 L 6.703125 -4.375 L 6.703125 -34.375 L 5.25 -34.375 C 4.039062 -34.375 3.4375 -34.867188 3.4375 -35.859375 L 3.4375 -37.25 C 3.4375 -38.238281 4.039062 -38.734375 5.25 -38.734375 L 29.609375 -38.734375 C 30.234375 -38.734375 30.75 -38.519531 31.15625 -38.09375 C 31.5625 -37.675781 31.765625 -37.15625 31.765625 -36.53125 L 31.765625 -31.375 C 31.765625 -30.15625 31.285156 -29.546875 30.328125 -29.546875 L 28.890625 -29.546875 C 27.929688 -29.546875 27.453125 -30.15625 27.453125 -31.375 L 27.453125 -34.375 L 11.671875 -34.375 L 11.671875 -22.25 L 23.859375 -22.25 C 24.296875 -22.25 24.671875 -22.09375 24.984375 -21.78125 C 25.296875 -21.46875 25.453125 -21.085938 25.453125 -20.640625 L 25.453125 -19.484375 C 25.453125 -19.035156 25.296875 -18.65625 24.984375 -18.34375 C 24.671875 -18.03125 24.296875 -17.875 23.859375 -17.875 L 11.671875 -17.875 L 11.671875 -4.375 L 27.734375 -4.375 L 27.734375 -8.40625 C 27.734375 -9.625 28.226562 -10.234375 29.21875 -10.234375 Z M 30.609375 -10.234375 "/></g></g></g><path fill="#3b2f4a" d="M 277.492188 32.785156 L 275.433594 45.328125 C 275.207031 47.152344 275.890625 48.75 277.261719 49.890625 C 278.632812 50.800781 280.6875 51.03125 282.058594 50.117188 L 292.5625 44.414062 L 303.066406 50.117188 C 303.75 50.574219 304.433594 50.800781 305.347656 50.800781 C 306.261719 50.800781 307.175781 50.574219 308.089844 49.890625 C 309.460938 48.976562 310.144531 47.152344 309.914062 45.328125 L 307.859375 32.785156 L 316.539062 23.890625 C 317.679688 22.75 318.136719 20.925781 317.679688 19.328125 C 317.222656 17.730469 315.394531 16.363281 313.796875 16.132812 L 301.921875 14.308594 L 296.671875 2.90625 C 295.988281 1.308594 294.386719 0.167969 292.5625 0.167969 C 290.734375 0.167969 289.136719 1.082031 288.453125 2.90625 L 283.199219 14.308594 L 271.324219 16.132812 C 269.726562 16.363281 268.128906 17.503906 267.671875 19.097656 C 267.214844 20.695312 267.441406 22.519531 268.8125 23.660156 Z M 277.492188 32.785156 " fill-opacity="1" fill-rule="nonzero"/><g clip-path="url(#id1)"><path fill="#3b2f4a" d="M 67.410156 32.785156 L 65.355469 45.328125 C 65.128906 47.152344 65.8125 48.75 67.183594 49.890625 C 68.554688 50.800781 70.609375 51.03125 71.980469 50.117188 L 82.484375 44.414062 L 92.988281 50.117188 C 93.671875 50.574219 94.355469 50.800781 95.269531 50.800781 C 96.183594 50.800781 97.097656 50.574219 98.011719 49.890625 C 99.378906 48.976562 100.066406 47.152344 99.835938 45.328125 L 97.78125 32.785156 L 106.460938 23.890625 C 107.601562 22.75 108.058594 20.925781 107.601562 19.328125 C 107.144531 17.730469 105.316406 16.363281 103.71875 16.132812 L 91.84375 14.308594 L 86.59375 2.90625 C 85.90625 1.308594 84.308594 0.398438 82.484375 0.398438 C 80.65625 0.398438 79.058594 1.308594 78.371094 3.132812 L 73.121094 14.539062 L 61.246094 16.132812 C 59.648438 16.363281 58.050781 17.503906 57.59375 19.097656 C 57.136719 20.695312 57.363281 22.519531 58.734375 23.660156 Z M 67.410156 32.785156 " fill-opacity="1" fill-rule="nonzero"/></g><path fill="#3b2f4a" d="M 171.308594 74.292969 L 169.027344 88.433594 C 168.796875 90.257812 169.484375 91.855469 170.851562 92.996094 C 172.222656 93.90625 174.050781 94.136719 175.648438 93.222656 L 187.523438 86.609375 L 199.394531 93.222656 C 200.082031 93.679688 200.765625 93.90625 201.679688 93.90625 C 202.59375 93.90625 203.507812 93.679688 204.417969 92.996094 C 205.789062 92.082031 206.476562 90.257812 206.246094 88.433594 L 203.964844 74.292969 L 213.78125 64.257812 C 214.921875 63.117188 215.378906 61.292969 214.921875 59.695312 C 214.46875 58.101562 212.867188 56.960938 211.269531 56.730469 L 197.796875 54.679688 L 191.859375 41.90625 C 191.175781 40.308594 189.578125 39.167969 187.75 39.167969 C 185.921875 39.167969 184.324219 40.082031 183.640625 41.90625 L 177.703125 54.679688 L 164.230469 56.730469 C 162.632812 56.960938 161.035156 58.101562 160.578125 59.695312 C 160.121094 61.292969 160.347656 63.117188 161.71875 64.257812 Z M 181.128906 63.34375 C 182.726562 63.117188 183.867188 62.207031 184.554688 60.835938 L 187.523438 54.679688 L 190.492188 60.835938 C 191.175781 62.207031 192.316406 63.117188 193.914062 63.34375 L 200.996094 64.484375 L 195.742188 69.730469 C 194.828125 70.871094 194.371094 72.242188 194.601562 73.609375 L 195.742188 80.90625 L 189.804688 77.484375 C 189.121094 77.03125 188.433594 76.800781 187.523438 76.800781 C 186.609375 76.800781 185.921875 77.03125 185.238281 77.484375 L 179.300781 80.679688 L 180.441406 73.378906 C 180.671875 72.011719 180.214844 70.414062 179.300781 69.503906 L 174.277344 64.257812 Z M 181.128906 63.34375 " fill-opacity="1" fill-rule="nonzero"/><path fill="#3b2f4a" d="M 211.042969 193.574219 L 197.570312 191.523438 L 191.632812 178.75 C 190.949219 177.152344 189.347656 176.011719 187.523438 176.011719 C 185.695312 176.011719 184.097656 176.925781 183.410156 178.75 L 177.476562 191.523438 L 164.003906 193.574219 C 162.402344 193.804688 160.804688 194.945312 160.347656 196.539062 C 159.890625 198.136719 160.121094 199.960938 161.492188 201.101562 L 171.308594 211.136719 L 169.027344 225.277344 C 168.796875 227.101562 169.484375 228.699219 170.851562 229.839844 C 172.222656 230.75 174.050781 230.980469 175.648438 230.066406 L 187.523438 223.453125 L 199.394531 230.066406 C 200.082031 230.523438 200.765625 230.75 201.679688 230.75 C 202.59375 230.75 203.507812 230.523438 204.417969 229.839844 C 205.789062 228.925781 206.476562 227.101562 206.246094 225.277344 L 203.964844 211.136719 L 213.78125 201.101562 C 214.921875 199.960938 215.378906 198.136719 214.921875 196.539062 C 214.46875 194.945312 212.640625 193.804688 211.042969 193.574219 Z M 195.742188 206.574219 C 194.828125 207.714844 194.371094 209.085938 194.601562 210.453125 L 195.742188 217.75 L 189.804688 214.328125 C 189.121094 213.875 188.433594 213.644531 187.523438 213.644531 C 186.609375 213.644531 185.921875 213.875 185.238281 214.328125 L 179.300781 217.523438 L 180.441406 210.222656 C 180.671875 208.855469 180.214844 207.257812 179.300781 206.347656 L 174.277344 201.101562 L 181.355469 199.960938 C 182.957031 199.734375 184.097656 198.820312 184.78125 197.453125 L 187.75 191.292969 L 190.71875 197.453125 C 191.402344 198.820312 192.546875 199.734375 194.144531 199.960938 L 201.222656 201.101562 Z M 195.742188 206.574219 " fill-opacity="1" fill-rule="nonzero"/><g clip-path="url(#id2)"><path fill="#3b2f4a" d="M 305.804688 73.378906 C 304.207031 73.378906 302.609375 73.609375 301.011719 74.519531 L 192.089844 122.871094 L 190.492188 123.558594 C 189.347656 124.011719 187.980469 124.242188 186.835938 124.242188 C 185.695312 124.242188 184.554688 124.011719 183.410156 123.558594 L 182.957031 123.558594 L 73.804688 77.941406 C 72.207031 77.257812 70.835938 77.03125 69.238281 77.03125 C 63.074219 77.03125 57.363281 82.046875 57.363281 88.890625 L 57.363281 233.261719 C 57.363281 238.050781 60.332031 242.382812 64.671875 244.207031 L 182.957031 291.417969 L 183.640625 291.644531 C 184.78125 292.101562 185.921875 292.332031 187.066406 292.332031 C 188.207031 292.332031 189.347656 292.101562 190.261719 291.644531 L 310.144531 246.03125 C 314.710938 244.207031 317.679688 239.875 317.679688 235.085938 L 317.679688 85.242188 C 317.679688 78.398438 311.972656 73.378906 305.804688 73.378906 Z M 220.175781 207.488281 L 213.554688 214.328125 L 215.152344 223.910156 C 216.066406 229.15625 213.78125 234.171875 209.441406 237.363281 C 207.160156 238.960938 204.417969 239.875 201.453125 239.875 C 199.167969 239.875 196.882812 239.417969 194.828125 238.277344 L 191.859375 236.679688 L 191.859375 281.382812 L 186.609375 283.4375 L 182.726562 281.839844 L 182.726562 236.679688 L 179.757812 238.277344 C 175.191406 240.785156 169.484375 240.558594 165.144531 237.59375 C 160.804688 234.628906 158.75 229.382812 159.433594 224.136719 L 161.035156 214.558594 L 154.410156 207.714844 C 150.757812 204.066406 149.617188 198.59375 151.214844 193.804688 C 152.8125 189.011719 157.152344 185.363281 162.175781 184.679688 L 170.625 183.3125 L 174.507812 174.875 C 176.105469 171.453125 178.84375 168.941406 182.269531 167.804688 L 182.269531 133.136719 C 183.410156 133.363281 184.78125 133.59375 185.921875 133.59375 C 187.75 133.59375 189.578125 133.363281 191.402344 132.679688 L 191.402344 167.804688 C 194.828125 168.941406 197.570312 171.453125 199.167969 174.875 L 203.050781 183.3125 L 211.5 184.679688 C 216.523438 185.363281 220.859375 189.011719 222.460938 193.804688 C 224.972656 198.59375 223.828125 203.839844 220.175781 207.488281 Z M 220.175781 207.488281 " fill-opacity="1" fill-rule="nonzero"/></g></svg>